<svg width="40" height="40" viewBox="0 0 40 40" fill="none" xmlns="http://www.w3.org/2000/svg">
<rect x="0.5" y="0.5" width="39" height="39" fill="#050402"/>
<path fill-rule="evenodd" clip-rule="evenodd" d="M32.4567 19.0441C32.454 25.5997 27.1211 30.9339 20.5641 30.9366H20.5592C18.5688 30.9359 16.613 30.4365 14.876 29.489L8.57153 31.1428L10.2587 24.9802C9.21798 23.1766 8.67035 21.1307 8.67124 19.0347C8.67385 12.4776 14.0089 7.14282 20.564 7.14282C23.7454 7.1442 26.7314 8.38271 28.9767 10.6307C31.222 12.8785 32.4579 15.8664 32.4567 19.0441ZM11.4269 28.3174L15.1681 27.336L15.529 27.5502C17.0467 28.4508 18.7864 28.9273 20.5601 28.928H20.5641C26.0122 28.928 30.4465 24.4937 30.4486 19.0433C30.4497 16.4021 29.4225 13.9186 27.5563 12.0502C25.69 10.1818 23.2082 9.15235 20.568 9.15144C15.1156 9.15144 10.6813 13.5853 10.6792 19.0353C10.6784 20.903 11.201 22.722 12.1905 24.2958L12.4255 24.6698L11.4269 28.3174Z" fill="#BB8C5F"/>
<path d="M26.3203 22.6151C26.246 22.4912 26.0479 22.4168 25.7508 22.268C25.4536 22.1193 23.9927 21.4005 23.7202 21.3012C23.4479 21.2021 23.2497 21.1526 23.0517 21.45C22.8536 21.7474 22.2841 22.4168 22.1108 22.6151C21.9374 22.8134 21.7641 22.8383 21.467 22.6895C21.1699 22.5408 20.2124 22.227 19.0773 21.2146C18.1939 20.4266 17.5976 19.4536 17.4242 19.1561C17.2509 18.8586 17.4057 18.6978 17.5545 18.5496C17.6882 18.4164 17.8517 18.2025 18.0003 18.029C18.1488 17.8555 18.1983 17.7315 18.2974 17.5333C18.3964 17.3349 18.3469 17.1614 18.2726 17.0127C18.1983 16.8639 17.6041 15.4013 17.3564 14.8063C17.1152 14.2268 16.8702 14.3053 16.6879 14.2962C16.5147 14.2875 16.3164 14.2856 16.1183 14.2856C15.9202 14.2856 15.5983 14.36 15.3259 14.6575C15.0535 14.955 14.2859 15.6739 14.2859 17.1365C14.2859 18.5992 15.3507 20.0122 15.4993 20.2105C15.6478 20.4089 17.5946 23.4103 20.5755 24.6974C21.2845 25.0036 21.838 25.1864 22.2696 25.3234C22.9814 25.5496 23.6293 25.5177 24.1412 25.4411C24.7122 25.3558 25.8993 24.7223 26.147 24.0282C26.3945 23.334 26.3945 22.739 26.3203 22.6151Z" fill="#BB8C5F"/>
<rect x="0.5" y="0.5" width="39" height="39" stroke="#BB8C5F"/>
</svg>
