<svg width="40" height="40" viewBox="0 0 40 40" fill="none" xmlns="http://www.w3.org/2000/svg">
<rect x="0.5" y="0.5" width="39" height="39" fill="#050402"/>
<path d="M25.3196 16.9105C25.2294 16.1759 25.0041 15.599 24.6041 15.0881C24.0847 14.4302 23.421 14.0362 22.4383 13.8025C21.7979 13.6467 21.5391 13.6646 21.3075 13.8767C21.0917 14.0754 21.0496 14.4738 21.2145 14.7318C21.3304 14.919 21.4642 14.9861 21.8362 15.0593C22.3317 15.1507 22.674 15.2693 22.9855 15.4478C23.6465 15.8304 23.9543 16.4292 23.9873 17.3986C24.0027 17.8538 24.0419 17.9937 24.2005 18.1552C24.4944 18.4502 25.0175 18.3929 25.2394 18.0397C25.3208 17.9066 25.3332 17.8487 25.3418 17.5396C25.3475 17.3483 25.3393 17.0635 25.3196 16.9105Z" fill="#BB8C5F"/>
<path d="M27.9088 17.7391C27.7782 15.4883 26.9001 13.6775 25.3285 12.4034C24.443 11.6875 23.3726 11.1953 22.1994 10.9559C21.7696 10.8702 20.9784 10.8008 20.8426 10.8405C20.7145 10.8773 20.5333 11.0164 20.4526 11.1421C20.3672 11.2785 20.3479 11.5829 20.4208 11.759C20.5384 12.0534 20.7571 12.1574 21.3697 12.2112C22.3141 12.294 23.2881 12.6266 24.0241 13.119C24.8644 13.6797 25.5323 14.4466 25.9644 15.3477C26.3377 16.1219 26.5673 17.2377 26.561 18.2369C26.5588 18.5983 26.6145 18.8024 26.7595 18.9516C26.9783 19.181 27.2973 19.2312 27.5788 19.0788C27.8907 18.9143 27.9637 18.6256 27.9088 17.7391Z" fill="#BB8C5F"/>
<path d="M30.7738 26.4064C30.7299 26.2777 30.6275 26.0793 30.5542 25.9654C30.093 25.2672 27.615 23.3231 26.3778 22.6873C25.6714 22.3235 25.148 22.2022 24.76 22.3161C24.3427 22.4337 24.1231 22.6285 23.424 23.4995C23.1422 23.8486 22.853 24.1757 22.7761 24.2271C22.5858 24.3594 22.2124 24.466 21.9489 24.466C21.3376 24.4623 20.2286 24.0654 19.3757 23.5435C18.7132 23.1393 17.864 22.4154 17.2125 21.6987C16.4438 20.8571 15.9204 20.1148 15.5068 19.2769C14.9724 18.2001 14.837 17.5423 15.0602 17.0608C15.1151 16.9396 15.1883 16.811 15.2212 16.7705C15.2542 16.7338 15.5983 16.4508 15.9789 16.1421C16.7257 15.5468 16.8464 15.4108 16.9855 15.0029C17.1612 14.4847 17.1137 13.9555 16.8428 13.4226C16.6341 13.0183 16.0888 12.1364 15.6935 11.5667C15.17 10.8171 13.867 9.21477 13.607 8.99788C13.1385 8.61572 12.5383 8.54953 11.8757 8.80684C11.1767 9.07879 9.86625 10.1372 9.30621 10.8759C8.80109 11.5447 8.60716 12.0188 8.57784 12.6435C8.55224 13.158 8.59615 13.3711 8.86701 14.029C10.9863 19.1887 14.1488 23.3083 18.4936 26.5791C20.763 28.288 23.1165 29.5889 25.5579 30.4783C26.9818 30.9965 27.6004 31.0222 28.3288 30.5959C28.6362 30.4121 29.3976 29.6294 29.8222 29.0598C30.5249 28.1116 30.7848 27.6743 30.858 27.3251C30.9093 27.0863 30.869 26.671 30.7738 26.4064Z" fill="#BB8C5F"/>
<path d="M30.5447 18.2554C30.4978 16.9823 30.284 15.938 29.8381 14.7737C29.3979 13.6284 28.9524 12.8811 28.1111 11.8702C27.3156 10.9225 26.6978 10.3813 25.7179 9.77892C24.3508 8.93963 22.6871 8.38422 20.8226 8.15064C20.1867 8.06901 20.0429 8.07484 19.8478 8.20532C19.4698 8.45252 19.4748 9.06907 19.854 9.31255C19.9796 9.39001 20.091 9.41822 20.5996 9.48496C21.3803 9.59034 21.8824 9.68965 22.4781 9.8526C24.8142 10.4928 26.6106 11.8013 27.8116 13.7438C28.8167 15.3629 29.2339 16.9821 29.1746 19.0501C29.154 19.7492 29.169 19.8723 29.2756 20.0403C29.4798 20.3533 30.0181 20.4153 30.2943 20.1555C30.4662 19.9971 30.4986 19.8783 30.5324 19.2799C30.5486 18.9677 30.5521 18.507 30.5447 18.2554Z" fill="#BB8C5F"/>
<rect x="0.5" y="0.5" width="39" height="39" stroke="#BB8C5F"/>
</svg>
